<?xml version="1.0" standalone="no"?>
<!DOCTYPE svg PUBLIC "-//W3C//DTD SVG 20010904//EN"
 "http://www.w3.org/TR/2001/REC-SVG-20010904/DTD/svg10.dtd">
<svg version="1.0" xmlns="http://www.w3.org/2000/svg"
 width="971.000000pt" height="219.000000pt" viewBox="0 0 971.000000 219.000000"
 preserveAspectRatio="xMidYMid meet">

<g transform="translate(0.000000,219.000000) scale(0.100000,-0.100000)"
fill="#000000" stroke="none">
<path d="M8822 2179 c-197 -29 -404 -162 -516 -333 -174 -264 -165 -614 22
-869 l35 -49 -104 -104 -105 -105 -31 16 c-20 10 -42 13 -60 9 -29 -7 -500
-460 -537 -516 -29 -45 -15 -84 52 -151 42 -42 68 -59 94 -63 34 -6 41 -2 134
84 55 49 177 169 273 266 l174 175 -6 49 -6 49 104 103 103 102 62 -42 c255
-173 599 -176 851 -6 512 344 424 1127 -151 1342 -129 49 -251 62 -388 43z
m252 -144 c224 -47 414 -235 472 -464 24 -97 16 -253 -19 -351 -54 -152 -167
-279 -311 -349 -105 -51 -170 -65 -286 -64 -263 3 -494 171 -581 423 -34 99
-38 252 -10 355 33 118 75 189 166 280 60 61 99 90 157 118 130 64 271 82 412
52z"/>
<path d="M8630 1455 l0 -455 345 0 345 0 0 321 0 321 -127 134 -127 134 -218
0 -218 0 0 -455z m418 298 l3 -123 119 0 120 0 0 -295 0 -295 -315 0 -315 0 0
420 0 420 193 -2 192 -3 3 -122z m137 -30 l68 -73 -91 0 -92 0 0 97 0 98 23
-25 c13 -14 54 -58 92 -97z"/>
<path d="M9068 1453 c34 -2 90 -2 125 0 34 2 6 3 -63 3 -69 0 -97 -1 -62 -3z"/>
<path d="M9068 1363 c34 -2 90 -2 125 0 34 2 6 3 -63 3 -69 0 -97 -1 -62 -3z"/>
<path d="M9010 1270 c0 -6 45 -10 114 -10 66 0 117 4 121 10 4 6 -37 10 -114
10 -74 0 -121 -4 -121 -10z"/>
<path d="M9010 1180 c0 -6 47 -10 120 -10 73 0 120 4 120 10 0 6 -47 10 -120
10 -73 0 -120 -4 -120 -10z"/>
<path d="M8770 1123 c0 -7 -9 -9 -22 -5 -21 5 -22 4 -9 -11 12 -15 11 -17 -8
-17 -11 0 -21 -4 -21 -10 0 -6 54 -9 143 -8 139 2 142 2 142 24 0 22 -10 25
-34 10 -11 -7 -12 -6 -6 5 7 11 6 12 -6 4 -8 -6 -23 -10 -34 -9 -52 3 -56 4
-49 17 4 6 -1 5 -12 -4 -24 -21 -54 -20 -55 0 0 12 -2 13 -6 2 -5 -11 -7 -11
-14 0 -5 9 -9 10 -9 2z"/>
<path d="M1940 1894 c-107 -46 -160 -177 -121 -295 13 -41 73 -103 114 -118
67 -26 158 -7 204 41 86 89 84 248 -3 330 -59 55 -129 70 -194 42z"/>
<path d="M301 1834 c-136 -49 -237 -173 -276 -336 -12 -52 -15 -173 -15 -715
l0 -653 215 0 215 0 0 568 c0 367 4 580 11 605 19 71 99 75 113 7 3 -18 6
-291 6 -606 l0 -574 215 0 215 0 0 568 c0 361 4 581 10 604 12 41 38 61 73 56
46 -7 47 -17 47 -640 l0 -588 215 0 215 0 0 644 c0 707 -2 741 -59 862 -38 81
-99 147 -170 181 -52 26 -65 28 -176 28 -102 0 -127 -3 -167 -22 -58 -27 -127
-90 -168 -154 -18 -27 -33 -49 -35 -49 -2 0 -14 19 -28 43 -36 60 -102 124
-162 155 -42 22 -66 26 -150 29 -73 2 -112 -1 -144 -13z"/>
<path d="M3200 1308 c0 -645 9 -748 82 -898 39 -82 159 -204 238 -242 69 -34
160 -58 222 -58 l48 0 0 239 0 239 -38 7 c-52 8 -98 38 -117 75 -16 31 -38
168 -29 182 3 4 45 8 95 8 l89 0 0 240 0 239 -92 3 -93 3 -3 233 -2 232 -200
0 -200 0 0 -502z"/>
<path d="M5210 970 l0 -840 220 0 220 0 0 621 0 622 69 -7 c83 -7 112 -17 139
-47 44 -46 34 -152 -18 -191 -14 -10 -49 -21 -78 -25 l-52 -6 0 -206 -1 -206
108 -277 108 -278 227 0 227 0 -23 67 c-13 38 -69 193 -125 346 l-101 279 47
52 c58 63 107 152 128 231 19 76 19 233 0 310 -37 143 -132 274 -243 333 -105
56 -151 62 -519 62 l-333 0 0 -840z"/>
<path d="M6934 1380 c-180 -27 -329 -140 -415 -315 -55 -113 -72 -189 -72
-320 0 -200 54 -343 175 -471 183 -192 454 -225 668 -82 33 22 62 43 65 48 3
5 -45 79 -107 164 l-112 155 -32 -29 c-41 -35 -66 -44 -110 -36 -47 9 -87 47
-115 108 -20 45 -24 70 -24 158 0 95 3 110 28 162 16 32 43 68 60 80 40 29
111 31 151 5 29 -20 71 -100 61 -117 -3 -6 -50 -10 -104 -10 -114 0 -111 4
-111 -112 0 -107 -31 -98 317 -98 l306 0 -5 118 c-6 127 -33 232 -85 320 -37
63 -134 164 -193 202 -91 58 -234 87 -346 70z"/>
<path d="M1800 745 l0 -615 200 0 200 0 0 615 0 615 -200 0 -200 0 0 -615z"/>
<path d="M2863 1325 c-107 -29 -175 -77 -236 -167 -46 -68 -65 -140 -77 -304
-6 -72 -15 -146 -21 -165 -23 -68 -84 -109 -161 -109 l-28 0 0 -240 0 -240 85
0 c159 0 265 38 355 129 97 98 148 224 174 428 18 144 34 173 104 192 l52 14
0 238 0 239 -97 -1 c-54 0 -122 -7 -150 -14z"/>
<path d="M3990 961 c0 -427 6 -486 64 -608 59 -123 161 -214 280 -248 91 -27
233 -17 311 20 76 36 180 139 223 222 67 127 72 171 72 605 l0 388 -200 0
-200 0 0 -374 c0 -363 -1 -374 -21 -400 -28 -36 -80 -36 -108 0 -20 26 -21 37
-21 400 l0 374 -200 0 -200 0 0 -379z"/>
</g>
</svg>
