<svg width="24" height="24" viewBox="0 0 24 24" fill="none" xmlns="http://www.w3.org/2000/svg">
<path d="M22.5 20.1444V11.7377C22.5 11.0353 22.1974 10.3669 21.6695 9.90351L13.6102 2.82838C12.689 2.0197 11.311 2.01969 10.3898 2.82838L2.3305 9.90351C1.80263 10.3669 1.5 11.0353 1.5 11.7377V20.1444C1.5 21.4924 2.59275 22.5851 3.94072 22.5851L7.23032 22.5851C8.57829 22.5852 9.67104 21.4924 9.67104 20.1444V16.9555C9.67104 16.2815 10.2174 15.7351 10.8914 15.7351L12.9643 15.7352C13.6383 15.7352 14.1846 16.2815 14.1846 16.9555V20.1444C14.1846 21.4924 15.2774 22.5852 16.6254 22.5851L20.0593 22.5851C21.4073 22.5851 22.5 21.4924 22.5 20.1444Z" fill="#379276"/>
</svg>
