<svg width="29" height="28" viewBox="0 0 29 28" fill="none" xmlns="http://www.w3.org/2000/svg">
<path d="M26.1549 9.94398V4.6526C26.1549 3.00925 25.409 2.34491 23.5558 2.34491H18.8472C16.994 2.34491 16.2481 3.00925 16.2481 4.6526V9.93233C16.2481 11.5873 16.994 12.24 18.8472 12.24H23.5558C25.409 12.2517 26.1549 11.5873 26.1549 9.94398Z" fill="#379276"/>
<path d="M26.1549 23.0557V18.3471C26.1549 16.4939 25.409 15.748 23.5558 15.748H18.8472C16.994 15.748 16.2481 16.4939 16.2481 18.3471V23.0557C16.2481 24.9088 16.994 25.6548 18.8472 25.6548H23.5558C25.409 25.6548 26.1549 24.9088 26.1549 23.0557Z" fill="#379276"/>
<path d="M12.7516 9.94398V4.6526C12.7516 3.00925 12.0057 2.34491 10.1525 2.34491H5.44392C3.59077 2.34491 2.84485 3.00925 2.84485 4.6526V9.93233C2.84485 11.5873 3.59077 12.24 5.44392 12.24H10.1525C12.0057 12.2517 12.7516 11.5873 12.7516 9.94398Z" fill="#379276"/>
<path d="M12.7516 23.0557V18.3471C12.7516 16.4939 12.0057 15.748 10.1525 15.748H5.44392C3.59077 15.748 2.84485 16.4939 2.84485 18.3471V23.0557C2.84485 24.9088 3.59077 25.6548 5.44392 25.6548H10.1525C12.0057 25.6548 12.7516 24.9088 12.7516 23.0557Z" fill="#379276"/>
</svg>
