<svg width="19" height="23" viewBox="0 0 19 23" fill="none" xmlns="http://www.w3.org/2000/svg">
<path d="M4.77741 6.00974C4.77741 3.40153 6.89178 1.28716 9.49999 1.28716C12.1082 1.28716 14.2226 3.40153 14.2226 6.00974C14.2226 8.61794 12.1082 10.7323 9.49999 10.7323C6.89178 10.7323 4.77741 8.61794 4.77741 6.00974Z" stroke="#379276" stroke-width="1.53535"/>
<path d="M2.18868 15.1718C3.06345 14.1058 4.59633 13.3657 6.20579 13.3657H12.7941C14.4036 13.3657 15.9364 14.1058 16.8112 15.1718L17.4046 14.6848L16.8112 15.1718C17.2512 15.708 17.5343 16.3393 17.5588 17.0095C17.5836 17.6853 17.3441 18.3687 16.7954 18.9963C15.3604 20.638 13.0149 21.7128 9.49994 21.7128C5.985 21.7128 3.63947 20.638 2.20444 18.9963C1.65579 18.3687 1.41633 17.6853 1.44108 17.0095C1.46563 16.3393 1.74865 15.708 2.18868 15.1718Z" stroke="#379276" stroke-width="1.53535"/>
</svg>
